<svg xmlns="http://www.w3.org/2000/svg" xmlns:xlink="http://www.w3.org/1999/xlink" width="2000" zoomAndPan="magnify" viewBox="0 0 1500 1499.999933" height="2000" preserveAspectRatio="xMidYMid meet" version="1.0"><defs><filter x="0%" y="0%" width="100%" height="100%" id="4212bd7786"><feColorMatrix values="0 0 0 0 1 0 0 0 0 1 0 0 0 0 1 0 0 0 1 0" color-interpolation-filters="sRGB"/></filter><g/><clipPath id="853a5955ea"><path d="M 0 0 L 1498.695312 0 L 1498.695312 1500 L 0 1500 Z M 0 0 " clip-rule="nonzero"/></clipPath><clipPath id="843dcf87fc"><path d="M 748.695312 0 C 334.480469 0 -1.304688 335.785156 -1.304688 750 C -1.304688 1164.214844 334.480469 1500 748.695312 1500 C 1162.910156 1500 1498.695312 1164.214844 1498.695312 750 C 1498.695312 335.785156 1162.910156 0 748.695312 0 Z M 748.695312 0 " clip-rule="nonzero"/></clipPath><clipPath id="23cffe06ae"><path d="M 0 0 L 1498.695312 0 L 1498.695312 1500 L 0 1500 Z M 0 0 " clip-rule="nonzero"/></clipPath><clipPath id="6404cef9f6"><path d="M 748.695312 0 C 334.480469 0 -1.304688 335.785156 -1.304688 750 C -1.304688 1164.214844 334.480469 1500 748.695312 1500 C 1162.910156 1500 1498.695312 1164.214844 1498.695312 750 C 1498.695312 335.785156 1162.910156 0 748.695312 0 Z M 748.695312 0 " clip-rule="nonzero"/></clipPath><clipPath id="58f9a16d84"><rect x="0" width="1499" y="0" height="1500"/></clipPath><clipPath id="205b84a6f2"><rect x="0" width="957" y="0" height="274"/></clipPath><clipPath id="f32808e0d9"><path d="M 0 0 L 1500 0 L 1500 1500 L 0 1500 Z M 0 0 " clip-rule="nonzero"/></clipPath><linearGradient x1="-177.020896" gradientTransform="matrix(1.420329, 0, 0, 1.420226, 251.427962, 593.560369)" y1="193.5" x2="879.072285" gradientUnits="userSpaceOnUse" y2="193.5" id="19b3dc4288"><stop stop-opacity="1" stop-color="rgb(18.03894%, 18.03894%, 18.03894%)" offset="0"/><stop stop-opacity="1" stop-color="rgb(18.03894%, 18.03894%, 18.03894%)" offset="0.125"/><stop stop-opacity="1" stop-color="rgb(18.03894%, 18.03894%, 18.03894%)" offset="0.15625"/><stop stop-opacity="1" stop-color="rgb(18.03894%, 18.03894%, 18.03894%)" offset="0.164062"/><stop stop-opacity="1" stop-color="rgb(18.307495%, 18.307495%, 18.307495%)" offset="0.167969"/><stop stop-opacity="1" stop-color="rgb(18.577576%, 18.577576%, 18.577576%)" offset="0.171875"/><stop stop-opacity="1" stop-color="rgb(20.03479%, 20.03479%, 20.03479%)" offset="0.175781"/><stop stop-opacity="1" stop-color="rgb(21.492004%, 21.492004%, 21.492004%)" offset="0.179688"/><stop stop-opacity="1" stop-color="rgb(22.949219%, 22.949219%, 22.949219%)" offset="0.183594"/><stop stop-opacity="1" stop-color="rgb(24.406433%, 24.406433%, 24.406433%)" offset="0.1875"/><stop stop-opacity="1" stop-color="rgb(25.862122%, 25.862122%, 25.862122%)" offset="0.191406"/><stop stop-opacity="1" stop-color="rgb(27.319336%, 27.319336%, 27.319336%)" offset="0.195312"/><stop stop-opacity="1" stop-color="rgb(28.77655%, 28.77655%, 28.77655%)" offset="0.199219"/><stop stop-opacity="1" stop-color="rgb(30.233765%, 30.233765%, 30.233765%)" offset="0.203125"/><stop stop-opacity="1" stop-color="rgb(31.689453%, 31.689453%, 31.689453%)" offset="0.207031"/><stop stop-opacity="1" stop-color="rgb(33.146667%, 33.146667%, 33.146667%)" offset="0.210938"/><stop stop-opacity="1" stop-color="rgb(34.603882%, 34.603882%, 34.603882%)" offset="0.214844"/><stop stop-opacity="1" stop-color="rgb(36.061096%, 36.061096%, 36.061096%)" offset="0.21875"/><stop stop-opacity="1" stop-color="rgb(37.516785%, 37.516785%, 37.516785%)" offset="0.222656"/><stop stop-opacity="1" stop-color="rgb(38.973999%, 38.973999%, 38.973999%)" offset="0.226562"/><stop stop-opacity="1" stop-color="rgb(40.431213%, 40.431213%, 40.431213%)" offset="0.230469"/><stop stop-opacity="1" stop-color="rgb(41.888428%, 41.888428%, 41.888428%)" offset="0.234375"/><stop stop-opacity="1" stop-color="rgb(43.345642%, 43.345642%, 43.345642%)" offset="0.238281"/><stop stop-opacity="1" stop-color="rgb(44.802856%, 44.802856%, 44.802856%)" offset="0.242187"/><stop stop-opacity="1" stop-color="rgb(46.258545%, 46.258545%, 46.258545%)" offset="0.246094"/><stop stop-opacity="1" stop-color="rgb(47.715759%, 47.715759%, 47.715759%)" offset="0.25"/><stop stop-opacity="1" stop-color="rgb(49.172974%, 49.172974%, 49.172974%)" offset="0.253906"/><stop stop-opacity="1" stop-color="rgb(50.630188%, 50.630188%, 50.630188%)" offset="0.257812"/><stop stop-opacity="1" stop-color="rgb(52.085876%, 52.085876%, 52.085876%)" offset="0.261719"/><stop stop-opacity="1" stop-color="rgb(53.543091%, 53.543091%, 53.543091%)" offset="0.265625"/><stop stop-opacity="1" stop-color="rgb(55.000305%, 55.000305%, 55.000305%)" offset="0.269531"/><stop stop-opacity="1" stop-color="rgb(56.45752%, 56.45752%, 56.45752%)" offset="0.273438"/><stop stop-opacity="1" stop-color="rgb(57.913208%, 57.913208%, 57.913208%)" offset="0.277344"/><stop stop-opacity="1" stop-color="rgb(59.370422%, 59.370422%, 59.370422%)" offset="0.28125"/><stop stop-opacity="1" stop-color="rgb(60.827637%, 60.827637%, 60.827637%)" offset="0.285156"/><stop stop-opacity="1" stop-color="rgb(62.284851%, 62.284851%, 62.284851%)" offset="0.289062"/><stop stop-opacity="1" stop-color="rgb(63.742065%, 63.742065%, 63.742065%)" offset="0.292969"/><stop stop-opacity="1" stop-color="rgb(65.19928%, 65.19928%, 65.19928%)" offset="0.296875"/><stop stop-opacity="1" stop-color="rgb(66.654968%, 66.654968%, 66.654968%)" offset="0.300781"/><stop stop-opacity="1" stop-color="rgb(68.112183%, 68.112183%, 68.112183%)" offset="0.304688"/><stop stop-opacity="1" stop-color="rgb(69.569397%, 69.569397%, 69.569397%)" offset="0.308594"/><stop stop-opacity="1" stop-color="rgb(71.026611%, 71.026611%, 71.026611%)" offset="0.3125"/><stop stop-opacity="1" stop-color="rgb(72.4823%, 72.4823%, 72.4823%)" offset="0.316406"/><stop stop-opacity="1" stop-color="rgb(73.939514%, 73.939514%, 73.939514%)" offset="0.320312"/><stop stop-opacity="1" stop-color="rgb(75.396729%, 75.396729%, 75.396729%)" offset="0.324219"/><stop stop-opacity="1" stop-color="rgb(76.853943%, 76.853943%, 76.853943%)" offset="0.328125"/><stop stop-opacity="1" stop-color="rgb(78.309631%, 78.309631%, 78.309631%)" offset="0.332031"/><stop stop-opacity="1" stop-color="rgb(79.766846%, 79.766846%, 79.766846%)" offset="0.335938"/><stop stop-opacity="1" stop-color="rgb(81.22406%, 81.22406%, 81.22406%)" offset="0.339844"/><stop stop-opacity="1" stop-color="rgb(82.681274%, 82.681274%, 82.681274%)" offset="0.34375"/><stop stop-opacity="1" stop-color="rgb(84.138489%, 84.138489%, 84.138489%)" offset="0.347656"/><stop stop-opacity="1" stop-color="rgb(85.595703%, 85.595703%, 85.595703%)" offset="0.351562"/><stop stop-opacity="1" stop-color="rgb(87.051392%, 87.051392%, 87.051392%)" offset="0.355469"/><stop stop-opacity="1" stop-color="rgb(88.508606%, 88.508606%, 88.508606%)" offset="0.359375"/><stop stop-opacity="1" stop-color="rgb(89.96582%, 89.96582%, 89.96582%)" offset="0.363281"/><stop stop-opacity="1" stop-color="rgb(91.423035%, 91.423035%, 91.423035%)" offset="0.367188"/><stop stop-opacity="1" stop-color="rgb(92.878723%, 92.878723%, 92.878723%)" offset="0.371094"/><stop stop-opacity="1" stop-color="rgb(94.335938%, 94.335938%, 94.335938%)" offset="0.375"/><stop stop-opacity="1" stop-color="rgb(95.793152%, 95.793152%, 95.793152%)" offset="0.378906"/><stop stop-opacity="1" stop-color="rgb(97.250366%, 97.250366%, 97.250366%)" offset="0.382812"/><stop stop-opacity="1" stop-color="rgb(98.625183%, 98.625183%, 98.625183%)" offset="0.386719"/><stop stop-opacity="1" stop-color="rgb(100%, 100%, 100%)" offset="0.390625"/><stop stop-opacity="1" stop-color="rgb(100%, 100%, 100%)" offset="0.40625"/><stop stop-opacity="1" stop-color="rgb(100%, 100%, 100%)" offset="0.4375"/><stop stop-opacity="1" stop-color="rgb(100%, 100%, 100%)" offset="0.5"/><stop stop-opacity="1" stop-color="rgb(100%, 100%, 100%)" offset="0.5625"/><stop stop-opacity="1" stop-color="rgb(100%, 100%, 100%)" offset="0.59375"/><stop stop-opacity="1" stop-color="rgb(100%, 100%, 100%)" offset="0.609375"/><stop stop-opacity="1" stop-color="rgb(98.770142%, 98.770142%, 98.770142%)" offset="0.613281"/><stop stop-opacity="1" stop-color="rgb(97.541809%, 97.541809%, 97.541809%)" offset="0.617188"/><stop stop-opacity="1" stop-color="rgb(96.084595%, 96.084595%, 96.084595%)" offset="0.621094"/><stop stop-opacity="1" stop-color="rgb(94.62738%, 94.62738%, 94.62738%)" offset="0.625"/><stop stop-opacity="1" stop-color="rgb(93.170166%, 93.170166%, 93.170166%)" offset="0.628906"/><stop stop-opacity="1" stop-color="rgb(91.712952%, 91.712952%, 91.712952%)" offset="0.632812"/><stop stop-opacity="1" stop-color="rgb(90.255737%, 90.255737%, 90.255737%)" offset="0.636719"/><stop stop-opacity="1" stop-color="rgb(88.800049%, 88.800049%, 88.800049%)" offset="0.640625"/><stop stop-opacity="1" stop-color="rgb(87.342834%, 87.342834%, 87.342834%)" offset="0.644531"/><stop stop-opacity="1" stop-color="rgb(85.88562%, 85.88562%, 85.88562%)" offset="0.648438"/><stop stop-opacity="1" stop-color="rgb(84.428406%, 84.428406%, 84.428406%)" offset="0.652344"/><stop stop-opacity="1" stop-color="rgb(82.972717%, 82.972717%, 82.972717%)" offset="0.65625"/><stop stop-opacity="1" stop-color="rgb(81.515503%, 81.515503%, 81.515503%)" offset="0.660156"/><stop stop-opacity="1" stop-color="rgb(80.058289%, 80.058289%, 80.058289%)" offset="0.664062"/><stop stop-opacity="1" stop-color="rgb(78.601074%, 78.601074%, 78.601074%)" offset="0.667969"/><stop stop-opacity="1" stop-color="rgb(77.145386%, 77.145386%, 77.145386%)" offset="0.671875"/><stop stop-opacity="1" stop-color="rgb(75.688171%, 75.688171%, 75.688171%)" offset="0.675781"/><stop stop-opacity="1" stop-color="rgb(74.230957%, 74.230957%, 74.230957%)" offset="0.679688"/><stop stop-opacity="1" stop-color="rgb(72.773743%, 72.773743%, 72.773743%)" offset="0.683594"/><stop stop-opacity="1" stop-color="rgb(71.316528%, 71.316528%, 71.316528%)" offset="0.6875"/><stop stop-opacity="1" stop-color="rgb(69.859314%, 69.859314%, 69.859314%)" offset="0.691406"/><stop stop-opacity="1" stop-color="rgb(68.403625%, 68.403625%, 68.403625%)" offset="0.695312"/><stop stop-opacity="1" stop-color="rgb(66.946411%, 66.946411%, 66.946411%)" offset="0.699219"/><stop stop-opacity="1" stop-color="rgb(65.489197%, 65.489197%, 65.489197%)" offset="0.703125"/><stop stop-opacity="1" stop-color="rgb(64.031982%, 64.031982%, 64.031982%)" offset="0.707031"/><stop stop-opacity="1" stop-color="rgb(62.576294%, 62.576294%, 62.576294%)" offset="0.710938"/><stop stop-opacity="1" stop-color="rgb(61.11908%, 61.11908%, 61.11908%)" offset="0.714844"/><stop stop-opacity="1" stop-color="rgb(59.661865%, 59.661865%, 59.661865%)" offset="0.71875"/><stop stop-opacity="1" stop-color="rgb(58.204651%, 58.204651%, 58.204651%)" offset="0.722656"/><stop stop-opacity="1" stop-color="rgb(56.747437%, 56.747437%, 56.747437%)" offset="0.726562"/><stop stop-opacity="1" stop-color="rgb(55.290222%, 55.290222%, 55.290222%)" offset="0.730469"/><stop stop-opacity="1" stop-color="rgb(53.834534%, 53.834534%, 53.834534%)" offset="0.734375"/><stop stop-opacity="1" stop-color="rgb(52.377319%, 52.377319%, 52.377319%)" offset="0.738281"/><stop stop-opacity="1" stop-color="rgb(50.920105%, 50.920105%, 50.920105%)" offset="0.742187"/><stop stop-opacity="1" stop-color="rgb(49.462891%, 49.462891%, 49.462891%)" offset="0.746094"/><stop stop-opacity="1" stop-color="rgb(48.007202%, 48.007202%, 48.007202%)" offset="0.75"/><stop stop-opacity="1" stop-color="rgb(46.549988%, 46.549988%, 46.549988%)" offset="0.753906"/><stop stop-opacity="1" stop-color="rgb(45.092773%, 45.092773%, 45.092773%)" offset="0.757812"/><stop stop-opacity="1" stop-color="rgb(43.635559%, 43.635559%, 43.635559%)" offset="0.761719"/><stop stop-opacity="1" stop-color="rgb(42.179871%, 42.179871%, 42.179871%)" offset="0.765625"/><stop stop-opacity="1" stop-color="rgb(40.722656%, 40.722656%, 40.722656%)" offset="0.769531"/><stop stop-opacity="1" stop-color="rgb(39.265442%, 39.265442%, 39.265442%)" offset="0.773437"/><stop stop-opacity="1" stop-color="rgb(37.808228%, 37.808228%, 37.808228%)" offset="0.777344"/><stop stop-opacity="1" stop-color="rgb(36.351013%, 36.351013%, 36.351013%)" offset="0.78125"/><stop stop-opacity="1" stop-color="rgb(34.893799%, 34.893799%, 34.893799%)" offset="0.785156"/><stop stop-opacity="1" stop-color="rgb(33.43811%, 33.43811%, 33.43811%)" offset="0.789062"/><stop stop-opacity="1" stop-color="rgb(31.980896%, 31.980896%, 31.980896%)" offset="0.792969"/><stop stop-opacity="1" stop-color="rgb(30.523682%, 30.523682%, 30.523682%)" offset="0.796875"/><stop stop-opacity="1" stop-color="rgb(29.066467%, 29.066467%, 29.066467%)" offset="0.800781"/><stop stop-opacity="1" stop-color="rgb(27.610779%, 27.610779%, 27.610779%)" offset="0.804688"/><stop stop-opacity="1" stop-color="rgb(26.153564%, 26.153564%, 26.153564%)" offset="0.808594"/><stop stop-opacity="1" stop-color="rgb(24.69635%, 24.69635%, 24.69635%)" offset="0.8125"/><stop stop-opacity="1" stop-color="rgb(23.239136%, 23.239136%, 23.239136%)" offset="0.816406"/><stop stop-opacity="1" stop-color="rgb(21.783447%, 21.783447%, 21.783447%)" offset="0.820312"/><stop stop-opacity="1" stop-color="rgb(20.326233%, 20.326233%, 20.326233%)" offset="0.824219"/><stop stop-opacity="1" stop-color="rgb(18.869019%, 18.869019%, 18.869019%)" offset="0.828125"/><stop stop-opacity="1" stop-color="rgb(18.453979%, 18.453979%, 18.453979%)" offset="0.832031"/><stop stop-opacity="1" stop-color="rgb(18.03894%, 18.03894%, 18.03894%)" offset="0.835937"/><stop stop-opacity="1" stop-color="rgb(18.03894%, 18.03894%, 18.03894%)" offset="0.84375"/><stop stop-opacity="1" stop-color="rgb(18.03894%, 18.03894%, 18.03894%)" offset="0.875"/><stop stop-opacity="1" stop-color="rgb(18.03894%, 18.03894%, 18.03894%)" offset="1"/></linearGradient><clipPath id="1bc1b14c0b"><rect x="0" width="1500" y="0" height="1500"/></clipPath><clipPath id="b69cf84e5d"><rect x="0" width="1500" y="0" height="1500"/></clipPath><clipPath id="abfdb2a4b9"><rect x="0" width="1500" y="0" height="1500"/></clipPath><mask id="05d8cc7303"><g filter="url(#4212bd7786)"><g transform="matrix(1, 0, 0, 1, 0, 0.000000000000112861)"><g clip-path="url(#abfdb2a4b9)"><g transform="matrix(1, 0, 0, 1, 0, 0.000000000000112861)"><g clip-path="url(#b69cf84e5d)"><g fill="#000000" fill-opacity="1"><g transform="translate(255.507285, 992.66514)"><g><path d="M 27.5 0 L 27.5 -274.984375 L 247.484375 -274.984375 L 247.484375 -220 L 82.5 -220 L 82.5 -55 L 247.484375 -55 L 247.484375 0 Z M 247.484375 -55 L 247.484375 -220 L 302.484375 -220 L 302.484375 -55 Z M 247.484375 -55 "/></g></g></g><g fill="#000000" fill-opacity="1"><g transform="translate(585.496687, 992.66514)"><g><path d="M 27.5 0 L 27.5 -274.984375 L 302.484375 -274.984375 L 302.484375 -220 L 82.5 -220 L 82.5 -165 L 247.484375 -165 L 247.484375 -110 L 82.5 -110 L 82.5 -55 L 302.484375 -55 L 302.484375 0 Z M 27.5 0 "/></g></g></g><g fill="#000000" fill-opacity="1"><g transform="translate(915.486088, 992.66514)"><g><path d="M 247.484375 -110 L 247.484375 -55 L 192.5 -55 L 192.5 -110 Z M 27.5 -110 L 27.5 -274.984375 L 82.5 -274.984375 L 82.5 -110 Z M 82.5 -55 L 82.5 -110 L 137.5 -110 L 137.5 -55 Z M 137.5 0 L 137.5 -55 L 192.5 -55 L 192.5 0 Z M 247.484375 -110 L 247.484375 -274.984375 L 302.484375 -274.984375 L 302.484375 -110 Z M 247.484375 -110 "/></g></g></g></g></g></g></g></g></mask><clipPath id="5fd26fc333"><path d="M 0 0 L 1500 0 L 1500 1500 L 0 1500 Z M 0 0 " clip-rule="nonzero"/></clipPath><clipPath id="bf107e0a42"><rect x="0" width="1500" y="0" height="1500"/></clipPath><clipPath id="4424b855aa"><rect x="0" width="1500" y="0" height="1500"/></clipPath><clipPath id="cc423e0ec8"><rect x="0" width="1500" y="0" height="1500"/></clipPath><clipPath id="03374de634"><rect x="0" width="1500" y="0" height="1500"/></clipPath></defs><g clip-path="url(#853a5955ea)"><g clip-path="url(#843dcf87fc)"><g transform="matrix(1, 0, 0, 1, 0, 0.000000000000112861)"><g clip-path="url(#58f9a16d84)"><g clip-path="url(#23cffe06ae)"><g clip-path="url(#6404cef9f6)"><path fill="#000000" d="M -1.304688 0 L 1498.695312 0 L 1498.695312 1500 L -1.304688 1500 Z M -1.304688 0 " fill-opacity="1" fill-rule="nonzero"/></g></g></g></g></g></g><g transform="matrix(1, 0, 0, 1, 0, 0.000000000000112861)"><g clip-path="url(#03374de634)"><g transform="matrix(1, 0, 0, 1, 263, 454)"><g clip-path="url(#205b84a6f2)"><g fill="#ffffff" fill-opacity="1"><g transform="translate(0.708683, 216.444249)"><g><path d="M 77.546875 -158.71875 C 89.035156 -158.71875 98.554688 -156.144531 106.109375 -151 C 113.671875 -145.863281 119.378906 -139.25 123.234375 -131.15625 C 127.085938 -123.070312 129.015625 -114.570312 129.015625 -105.65625 C 129.015625 -96.882812 127.085938 -88.457031 123.234375 -80.375 C 119.378906 -72.289062 113.671875 -65.675781 106.109375 -60.53125 C 98.554688 -55.394531 89.035156 -52.828125 77.546875 -52.828125 L 42.625 -52.828125 L 42.625 0 L 19.5 0 L 19.5 -158.71875 Z M 77.546875 -75.5 C 84.046875 -75.5 89.410156 -76.972656 93.640625 -79.921875 C 97.867188 -82.867188 101.039062 -86.609375 103.15625 -91.140625 C 105.28125 -95.679688 106.34375 -100.445312 106.34375 -105.4375 C 106.34375 -110.570312 105.28125 -115.40625 103.15625 -119.9375 C 101.039062 -124.476562 97.867188 -128.222656 93.640625 -131.171875 C 89.410156 -134.117188 84.046875 -135.59375 77.546875 -135.59375 L 42.625 -135.59375 L 42.625 -75.5 Z M 77.546875 -75.5 "/></g></g></g><g fill="#ffffff" fill-opacity="1"><g transform="translate(137.660435, 216.444249)"><g><path d="M 77.3125 -80.484375 C 83.8125 -80.484375 89.175781 -81.84375 93.40625 -84.5625 C 97.644531 -87.289062 100.820312 -90.769531 102.9375 -95 C 105.050781 -99.226562 106.109375 -103.613281 106.109375 -108.15625 C 106.109375 -112.6875 105.050781 -117.21875 102.9375 -121.75 C 100.820312 -126.289062 97.644531 -130.070312 93.40625 -133.09375 C 89.175781 -136.113281 83.8125 -137.625 77.3125 -137.625 L 42.171875 -137.625 L 42.171875 0 L 19.5 0 L 19.5 -160.75 L 77.3125 -160.75 C 85.925781 -160.75 93.484375 -159.195312 99.984375 -156.09375 C 106.484375 -153 111.882812 -148.921875 116.1875 -143.859375 C 120.5 -138.796875 123.710938 -133.164062 125.828125 -126.96875 C 127.953125 -120.769531 129.015625 -114.5 129.015625 -108.15625 C 129.015625 -100.75 127.5 -93.601562 124.46875 -86.71875 C 121.445312 -79.84375 116.875 -74.023438 110.75 -69.265625 C 104.632812 -64.503906 97.039062 -61.289062 87.96875 -59.625 L 138.078125 0 L 108.375 0 L 50.5625 -69.609375 L 50.5625 -80.484375 Z M 77.3125 -80.484375 "/></g></g></g><g fill="#ffffff" fill-opacity="1"><g transform="translate(268.036686, 216.444249)"><g><path d="M 7.9375 -79.359375 C 7.9375 -90.847656 10.050781 -101.578125 14.28125 -111.546875 C 18.519531 -121.523438 24.414062 -130.289062 31.96875 -137.84375 C 39.53125 -145.40625 48.257812 -151.300781 58.15625 -155.53125 C 68.0625 -159.769531 78.753906 -161.890625 90.234375 -161.890625 C 101.722656 -161.890625 112.457031 -159.769531 122.4375 -155.53125 C 132.414062 -151.300781 141.179688 -145.40625 148.734375 -137.84375 C 156.296875 -130.289062 162.191406 -121.523438 166.421875 -111.546875 C 170.648438 -101.578125 172.765625 -90.847656 172.765625 -79.359375 C 172.765625 -67.867188 170.648438 -57.171875 166.421875 -47.265625 C 162.191406 -37.367188 156.296875 -28.640625 148.734375 -21.078125 C 141.179688 -13.523438 132.414062 -7.628906 122.4375 -3.390625 C 112.457031 0.835938 101.722656 2.953125 90.234375 2.953125 C 78.753906 2.953125 68.0625 0.835938 58.15625 -3.390625 C 48.257812 -7.628906 39.53125 -13.523438 31.96875 -21.078125 C 24.414062 -28.640625 18.519531 -37.367188 14.28125 -47.265625 C 10.050781 -57.171875 7.9375 -67.867188 7.9375 -79.359375 Z M 31.515625 -79.359375 C 31.515625 -68.472656 34.160156 -58.609375 39.453125 -49.765625 C 44.742188 -40.921875 51.8125 -33.851562 60.65625 -28.5625 C 69.5 -23.28125 79.359375 -20.640625 90.234375 -20.640625 C 101.117188 -20.640625 111.019531 -23.28125 119.9375 -28.5625 C 128.851562 -33.851562 135.957031 -40.921875 141.25 -49.765625 C 146.539062 -58.609375 149.1875 -68.472656 149.1875 -79.359375 C 149.1875 -90.242188 146.539062 -100.144531 141.25 -109.0625 C 135.957031 -117.976562 128.851562 -125.082031 119.9375 -130.375 C 111.019531 -135.664062 101.117188 -138.3125 90.234375 -138.3125 C 79.359375 -138.3125 69.5 -135.664062 60.65625 -130.375 C 51.8125 -125.082031 44.742188 -117.976562 39.453125 -109.0625 C 34.160156 -100.144531 31.515625 -90.242188 31.515625 -79.359375 Z M 31.515625 -79.359375 "/></g></g></g><g fill="#ffffff" fill-opacity="1"><g transform="translate(443.307713, 216.444249)"><g><path d="M 85.703125 -68.703125 C 85.703125 -53.585938 83.171875 -40.851562 78.109375 -30.5 C 73.046875 -20.144531 64.882812 -12.28125 53.625 -6.90625 C 42.363281 -1.539062 27.359375 1.140625 8.609375 1.140625 C 7.554688 1.140625 6.460938 1.097656 5.328125 1.015625 C 4.191406 0.941406 3.019531 0.90625 1.8125 0.90625 L 1.8125 -20.640625 C 3.175781 -20.484375 4.535156 -20.40625 5.890625 -20.40625 C 7.253906 -20.40625 8.539062 -20.40625 9.75 -20.40625 C 23.351562 -20.40625 34.007812 -22.367188 41.71875 -26.296875 C 49.425781 -30.234375 54.867188 -35.789062 58.046875 -42.96875 C 61.222656 -50.144531 62.8125 -58.722656 62.8125 -68.703125 L 62.8125 -138.984375 L 19.953125 -138.984375 L 19.953125 -159.84375 L 85.703125 -159.84375 Z M 85.703125 -68.703125 "/></g></g></g><g fill="#ffffff" fill-opacity="1"><g transform="translate(546.47503, 216.444249)"><g><path d="M 116.3125 -22.90625 L 116.3125 0 L 19.5 0 L 19.5 -160.296875 L 116.09375 -160.296875 L 116.09375 -137.40625 L 42.625 -137.40625 L 42.625 -92.734375 L 114.5 -92.734375 L 114.5 -69.609375 L 42.625 -69.609375 L 42.625 -22.90625 Z M 116.3125 -22.90625 "/></g></g></g><g fill="#ffffff" fill-opacity="1"><g transform="translate(672.996634, 216.444249)"><g><path d="M 8.84375 -78.90625 C 8.84375 -90.09375 10.882812 -100.5625 14.96875 -110.3125 C 19.050781 -120.0625 24.492188 -128.5625 31.296875 -135.8125 C 38.242188 -142.914062 46.628906 -148.734375 56.453125 -153.265625 C 66.273438 -157.804688 76.554688 -160.078125 87.296875 -160.078125 C 99.390625 -160.078125 110.460938 -157.617188 120.515625 -152.703125 C 130.566406 -147.796875 139.101562 -140.921875 146.125 -132.078125 C 153.15625 -123.234375 158.179688 -112.835938 161.203125 -100.890625 L 138.53125 -100.890625 C 134.300781 -112.835938 127.613281 -121.910156 118.46875 -128.109375 C 109.320312 -134.304688 98.929688 -137.40625 87.296875 -137.40625 C 79.734375 -137.40625 72.398438 -135.78125 65.296875 -132.53125 C 58.191406 -129.28125 52.144531 -125.007812 47.15625 -119.71875 C 42.164062 -114.570312 38.234375 -108.519531 35.359375 -101.5625 C 32.492188 -94.613281 31.0625 -87.0625 31.0625 -78.90625 C 31.0625 -71.039062 32.457031 -63.628906 35.25 -56.671875 C 38.050781 -49.722656 41.945312 -43.601562 46.9375 -38.3125 C 51.925781 -33.175781 58.007812 -29.097656 65.1875 -26.078125 C 72.363281 -23.054688 79.734375 -21.546875 87.296875 -21.546875 C 99.390625 -21.546875 110.15625 -24.867188 119.59375 -31.515625 C 129.039062 -38.171875 135.804688 -47.46875 139.890625 -59.40625 L 162.34375 -59.40625 C 159.320312 -47.46875 154.257812 -36.925781 147.15625 -27.78125 C 140.050781 -18.632812 131.394531 -11.523438 121.1875 -6.453125 C 110.988281 -1.390625 99.691406 1.140625 87.296875 1.140625 C 76.554688 1.140625 66.390625 -0.9375 56.796875 -5.09375 C 47.203125 -9.257812 38.925781 -14.96875 31.96875 -22.21875 C 25.164062 -29.476562 19.609375 -37.984375 15.296875 -47.734375 C 10.992188 -57.484375 8.84375 -67.875 8.84375 -78.90625 Z M 8.84375 -78.90625 "/></g></g></g><g fill="#ffffff" fill-opacity="1"><g transform="translate(834.436435, 216.444249)"><g><path d="M 49.421875 -138.53125 L 1.359375 -138.53125 L 1.359375 -160.296875 L 120.171875 -160.296875 L 120.171875 -138.53125 L 72.328125 -138.53125 L 72.328125 0 L 49.421875 0 Z M 49.421875 -138.53125 "/></g></g></g></g></g><g transform="matrix(1, 0, 0, 1, 0, 0.000000000000112861)"><g clip-path="url(#cc423e0ec8)"><g transform="matrix(1, 0, 0, 1, 0, 0.000000000000112861)"><g clip-path="url(#4424b855aa)"><g mask="url(#05d8cc7303)"><g transform="matrix(1, 0, 0, 1, 0, 0.000000000000112861)"><g clip-path="url(#bf107e0a42)"><g clip-path="url(#5fd26fc333)"><rect x="-1116.24" fill="url(#19b3dc4288)" width="3732.48" y="-1116.23995" height="3732.479834"/></g></g></g></g></g></g></g></g></g></g></svg>
